<svg xmlns="http://www.w3.org/2000/svg" viewBox="0 0 512 512"><!--!Font Awesome Free 6.7.1 by @fontawesome - https://fontawesome.com License - https://fontawesome.com/license/free Copyright 2024 Fonticons, Inc.--><path d="M502.6 233.3L278.7 9.4c-12.5-12.5-32.8-12.5-45.4 0L9.4 233.3c-12.5 12.5-12.5 32.8 0 45.4l223.9 223.9c12.5 12.5 32.8 12.5 45.4 0l223.9-223.9c12.5-12.5 12.5-32.8 0-45.4zm-101 12.6l-84.2 77.7c-5.1 4.7-13.4 1.1-13.4-5.9V264h-96v64c0 4.4-3.6 8-8 8h-32c-4.4 0-8-3.6-8-8v-80c0-17.7 14.3-32 32-32h112v-53.7c0-7 8.3-10.6 13.4-5.9l84.2 77.7c3.4 3.2 3.4 8.6 0 11.8z"/></svg>